<svg width="16" height="16" viewBox="0 0 16 16" fill="none" xmlns="http://www.w3.org/2000/svg">
<path d="M13.6327 13.6329H11.262V9.92026C11.262 9.03495 11.2462 7.89526 10.029 7.89526C8.79425 7.89526 8.60531 8.85988 8.60531 9.85582V13.6327H6.23469V5.99795H8.5105V7.04132H8.54238C8.77013 6.65189 9.09925 6.33152 9.49468 6.11433C9.89011 5.89715 10.337 5.79128 10.7879 5.80801C13.1907 5.80801 13.6337 7.38851 13.6337 9.44463L13.6327 13.6329V13.6329ZM3.55969 4.95438C2.79988 4.95451 2.18381 4.33863 2.18369 3.57882C2.18356 2.81901 2.79938 2.20295 3.55919 2.20282C4.319 2.20263 4.93506 2.81851 4.93519 3.57832C4.93526 3.9432 4.79038 4.29316 4.53242 4.55122C4.27447 4.80928 3.92457 4.9543 3.55969 4.95438V4.95438ZM4.74506 13.633H2.37188V5.99795H4.745V13.6329L4.74506 13.633ZM14.8146 0.00113398H1.18063C0.536251 -0.00611602 0.00781396 0.510071 -6.10352e-05 1.15445V14.8453C0.00756396 15.4899 0.535939 16.0066 1.18056 15.9999H14.8146C15.4606 16.0079 15.991 15.4912 15.9999 14.8453V1.15338C15.9908 0.507759 15.4603 -0.00836602 14.8146 7.14757e-05" fill="#0A66C2"/>
</svg>
